<svg width="112" height="18" viewBox="0 0 112 18" fill="none" xmlns="http://www.w3.org/2000/svg">
<path d="M13.8327 17.5942L13.8327 6.70422L9.90598 17.5942H7.00558L3.07888 6.65922L3.07888 17.5942H0L0 0.449219L4.10518 0.449219L8.43347 12.4642L12.8064 0.449219L16.9116 0.449219L16.9116 17.5942H13.8327Z" fill="white"/>
<path d="M24.6757 17.5942L24.6757 0.449219L27.7545 0.449219L27.7545 17.5942H24.6757Z" fill="white"/>
<path d="M46.4956 16.785C45.2016 17.595 43.6845 18 41.9888 18C40.2486 18 38.7761 17.595 37.4821 16.785C35.8757 15.795 35.0725 14.265 35.0725 12.15H38.1514C38.1514 13.275 38.553 13.995 39.4008 14.4C40.1147 14.715 41.0072 14.895 41.9888 14.895C43.0598 14.895 43.9076 14.76 44.5769 14.445C45.3801 14.085 45.8263 13.5 45.8263 12.735C45.8263 11.835 45.0677 11.16 43.5952 10.845C43.5952 10.845 40.0255 10.26 38.553 9.765C36.5004 9 35.4741 7.515 35.4741 5.265C35.4741 3.6 36.2327 2.295 37.7052 1.305C38.9546 0.45 40.3825 0 41.9888 0C43.5952 0 45.0677 0.405 46.3171 1.305C47.7896 2.295 48.5036 3.78 48.5036 5.85H45.3801C45.3801 4.815 45.0231 4.095 44.2645 3.69C43.6845 3.285 42.9259 3.15 41.9888 3.15C41.0964 3.15 40.3378 3.33 39.6685 3.645C38.9546 4.05 38.553 4.59 38.553 5.265C38.553 6.255 39.3116 6.885 40.7841 7.245C41.1857 7.335 44.0414 7.74 45.6924 8.28C47.7896 9.09 48.8606 10.53 48.8606 12.735C48.9052 14.4 48.102 15.795 46.4956 16.785Z" fill="white"/>
<path d="M67.7355 16.1992C66.62 17.1442 65.3706 17.6392 63.9427 17.6392H56.2231V0.449219L63.5411 0.449219C65.0136 0.449219 66.263 0.899219 67.3339 1.84422C68.4941 2.87922 69.0741 4.09422 69.0741 5.53422C69.0741 7.01922 68.4941 8.14422 67.3785 8.90922C68.7618 9.67422 69.4311 10.8892 69.4311 12.5542C69.4311 13.9942 68.851 15.2092 67.7355 16.1992ZM65.1921 4.09422C64.7012 3.73422 64.1211 3.55422 63.4964 3.55422L59.2574 3.55422V7.46922H63.4964C64.1211 7.46922 64.7012 7.28922 65.1921 6.92922C65.6829 6.56922 65.906 6.11922 65.906 5.53422C65.9506 4.90422 65.6829 4.45422 65.1921 4.09422ZM65.5937 11.1142C65.1028 10.7542 64.5227 10.5742 63.898 10.5742L59.2574 10.5742V14.4442L63.898 14.4442C64.5674 14.4442 65.1028 14.2642 65.5937 13.9042C66.0845 13.5442 66.3076 13.0942 66.3076 12.5092C66.3522 11.9692 66.0845 11.5192 65.5937 11.1142Z" fill="white"/>
<path d="M87.5028 17.5942V10.5742L79.8725 10.5742V17.5942H76.749V0.449219L79.8279 0.449219V7.46922L87.4582 7.46922V0.449219L90.5817 0.449219V17.5942C90.6263 17.5942 87.5028 17.5942 87.5028 17.5942Z" fill="white"/>
<path d="M105.798 17.5942H102.897L96.7395 0.449219L100.041 0.449219L104.37 12.4642L108.698 0.449219L112 0.449219L105.798 17.5942Z" fill="white"/>
</svg>
